<svg xmlns="http://www.w3.org/2000/svg" xmlns:xlink="http://www.w3.org/1999/xlink" version="1.1" x="0px" y="0px" viewBox="0 0 100 125" enable-background="new 0 0 100 100" xml:space="preserve"><g><g><path d="M100,59c0,1.104-0.896,2-2,2H2c-1.104,0-2-0.896-2-2V38c0-1.104,0.896-2,2-2h96c1.104,0,2,0.896,2,2V59z M4,57h91V40H4V57    z"/></g><g><path d="M97.149,40H1.969c-1.014,0-1.867-0.88-1.986-1.887c-0.119-1.007,0.534-2.004,1.52-2.241l27.194-6.668    C28.85,29.167,29.006,29,29.164,29h40.791c0.157,0,0.313,0.137,0.466,0.174l27.195,6.578c0.986,0.236,1.639,1.324,1.52,2.331    C99.017,39.09,98.163,40,97.149,40z M18.892,36h61.335l-10.508-3H29.4L18.892,36z"/></g></g><g><path d="M17,55H9c-1.104,0-2-0.896-2-2v-8c0-1.104,0.896-2,2-2h8c1.104,0,2,0.896,2,2v8C19,54.104,18.104,55,17,55z M11,51h4v-4h-4   V51z"/></g><g><path d="M33,53c0,1.104-0.896,2-2,2h-8c-1.104,0-2-0.896-2-2v-8c0-1.104,0.896-2,2-2h8c1.104,0,2,0.896,2,2V53z M25,51h4v-4h-4V51z   "/></g><g><path d="M46,55h-8c-1.104,0-2-0.896-2-2v-8c0-1.104,0.896-2,2-2h8c1.104,0,2,0.896,2,2v8C48,54.104,47.104,55,46,55z M40,51h4v-4   h-4V51z"/></g><g><path d="M90,55h-8c-1.104,0-2-0.896-2-2v-8c0-1.104,0.896-2,2-2h8c1.104,0,2,0.896,2,2v8C92,54.104,91.104,55,90,55z M84,51h4v-4   h-4V51z"/></g><g><path d="M78,53c0,1.104-0.896,2-2,2h-8c-1.104,0-2-0.896-2-2v-8c0-1.104,0.896-2,2-2h8c1.104,0,2,0.896,2,2V53z M70,51h4v-4h-4V51z   "/></g><g><path d="M63,53c0,1.104-0.896,2-2,2h-9c-1.104,0-2-0.896-2-2v-8c0-1.104,0.896-2,2-2h9c1.104,0,2,0.896,2,2V53z M54,51h5v-4h-5V51z   "/></g><text x="0" y="115" fill="#000000" font-size="5px" font-weight="bold" font-family="'Helvetica Neue', Helvetica, Arial-Unicode, Arial, Sans-serif">Created by Sergey Krivoy</text><text x="0" y="120" fill="#000000" font-size="5px" font-weight="bold" font-family="'Helvetica Neue', Helvetica, Arial-Unicode, Arial, Sans-serif">from the Noun Project</text></svg>