<svg xmlns="http://www.w3.org/2000/svg" xmlns:xlink="http://www.w3.org/1999/xlink" version="1.1" x="0px" y="0px" viewBox="0 0 100 125" enable-background="new 0 0 100 100" xml:space="preserve"><path d="M49.249,48.011c0,0,1.157-0.354,2.417,0.906c1.259,1.259,12.484,30.378,13.895,34.103  c2.215,6.847-5.439,10.471-9.062,10.471c-3.624,0-24.163,0-24.163,0v1.41c0,0,19.531,0.1,24.163,0.1  c6.142,0,12.887-5.537,10.772-11.98c-1.409-3.624-13.188-33.097-14.246-35.135c-0.982-1.895-3.775-1.736-3.775-1.736V48.011z"/><polygon points="35.635,83.02 34.48,82.627 47.215,5 48.425,5.234 "/><path d="M48.922,5.234L36.161,83.024c0,0,0.82,0.135,1.97,0.322c1.148,0.189,6.808-8.614,11.601-37.836  c4.792-29.22,0.733-39.923,0.158-40.017C49.314,5.399,48.922,5.234,48.922,5.234z"/><text x="0" y="115" fill="#000000" font-size="5px" font-weight="bold" font-family="'Helvetica Neue', Helvetica, Arial-Unicode, Arial, Sans-serif">Created by Aaron K. Kim</text><text x="0" y="120" fill="#000000" font-size="5px" font-weight="bold" font-family="'Helvetica Neue', Helvetica, Arial-Unicode, Arial, Sans-serif">from the Noun Project</text></svg>